<svg width="132" height="132" viewBox="0 0 132 132" fill="none" xmlns="http://www.w3.org/2000/svg">
<path d="M27.1113 19.6541L31.2986 16.4411L35.75 13.6053L40.4316 11.1682L45.3078 9.14842L50.3414 7.56131L55.4943 6.41895" stroke="#CC1010" stroke-width="6" stroke-linecap="round"/>
<path d="M76.5057 6.41895L81.6586 7.5613L86.6922 9.14842L91.5684 11.1682L96.25 13.6053L100.701 16.4411L104.889 19.6541L108.78 23.2199L112.346 27.1112L115.559 31.2984L118.395 35.7498L120.832 40.4314L122.851 45.3076L124.439 50.3413L125.581 55.4941L126.27 60.7269L126.5 65.9998L126.27 71.2727L125.581 76.5055L124.439 81.6584L122.851 86.692L120.832 91.5682L118.395 96.2498L115.559 100.701L112.346 104.888L108.78 108.78L104.889 112.346L100.701 115.559L96.25 118.394L91.5684 120.831L86.6922 122.851L81.6586 124.438L76.5057 125.581L71.2729 126.27L66 126.5L60.7271 126.27L55.4943 125.581L50.3414 124.438L45.3078 122.851L40.4316 120.831L35.75 118.394L31.2986 115.559L27.1113 112.346L23.22 108.78L19.6543 104.888L16.4413 100.701L13.6055 96.2498L11.1684 91.5682L9.1486 86.692L7.56149 81.6584L6.41913 76.5055L5.73022 71.2727L5.5 65.9998L5.73022 60.7269L6.41913 55.4941L7.56149 50.3413L9.1486 45.3076L11.1684 40.4314L13.6055 35.7498" stroke="#02369C" stroke-width="6" stroke-linecap="round"/>
</svg>
