<svg width="115" height="51" viewBox="0 0 115 51" fill="none" xmlns="http://www.w3.org/2000/svg">
<g clip-path="url(#clip0_2302_679)">
<rect x="25.1667" width="64" height="32" rx="16" fill="#CCD7EB"/>
<path d="M51.1667 23H54.1667V17H60.1667V23H63.1667V14L57.1667 9.5L51.1667 14V23ZM49.1667 25V13L57.1667 7L65.1667 13V25H58.1667V19H56.1667V25H49.1667Z" fill="#02369C"/>
</g>
<path d="M42.0495 46.7344V48H37.5143V46.7344H42.0495ZM38.0065 39.4688V48H36.3952V39.4688H38.0065ZM41.4577 42.9902V44.2266H37.5143V42.9902H41.4577ZM42.0319 39.4688V40.7402H37.5143V39.4688H42.0319ZM44.7643 41.6602L45.8952 43.6758L47.0436 41.6602H48.7253L46.862 44.7656L48.8014 48H47.1198L45.9069 45.8848L44.6882 48H43.0065L44.9401 44.7656L43.0885 41.6602H44.7643ZM51.6686 42.8789V50.4375H50.1159V41.6602H51.5514L51.6686 42.8789ZM55.7409 44.7656V44.8887C55.7409 45.3496 55.6862 45.7773 55.5768 46.1719C55.4714 46.5625 55.3151 46.9043 55.1081 47.1973C54.901 47.4863 54.6432 47.7129 54.3346 47.877C54.0299 48.0371 53.6784 48.1172 53.2799 48.1172C52.8893 48.1172 52.5495 48.043 52.2604 47.8945C51.9714 47.7422 51.7272 47.5273 51.528 47.25C51.3288 46.9727 51.1686 46.6504 51.0475 46.2832C50.9303 45.9121 50.8424 45.5078 50.7839 45.0703V44.6777C50.8424 44.2129 50.9303 43.791 51.0475 43.4121C51.1686 43.0293 51.3288 42.6992 51.528 42.4219C51.7272 42.1406 51.9694 41.9238 52.2546 41.7715C52.5436 41.6191 52.8815 41.543 53.2682 41.543C53.6706 41.543 54.0241 41.6191 54.3288 41.7715C54.6374 41.9238 54.8971 42.1426 55.1081 42.4277C55.319 42.7129 55.4772 43.0527 55.5827 43.4473C55.6882 43.8418 55.7409 44.2812 55.7409 44.7656ZM54.1882 44.8887V44.7656C54.1882 44.4844 54.1628 44.2246 54.112 43.9863C54.0612 43.7441 53.9831 43.5332 53.8776 43.3535C53.7721 43.1699 53.6354 43.0273 53.4674 42.9258C53.2995 42.8242 53.0964 42.7734 52.8581 42.7734C52.6198 42.7734 52.4147 42.8125 52.2428 42.8906C52.071 42.9688 51.9303 43.0801 51.821 43.2246C51.7116 43.3691 51.6257 43.541 51.5632 43.7402C51.5046 43.9355 51.4655 44.1523 51.446 44.3906V45.3633C51.4811 45.6523 51.5495 45.9121 51.651 46.1426C51.7526 46.373 51.901 46.5566 52.0964 46.6934C52.2956 46.8301 52.5534 46.8984 52.8698 46.8984C53.1081 46.8984 53.3112 46.8457 53.4792 46.7402C53.6471 46.6348 53.7839 46.4902 53.8893 46.3066C53.9948 46.1191 54.071 45.9043 54.1178 45.6621C54.1647 45.4199 54.1882 45.1621 54.1882 44.8887ZM59.0124 39V48H57.4596V39H59.0124ZM60.7135 44.8945V44.7715C60.7135 44.3066 60.7799 43.8789 60.9128 43.4883C61.0456 43.0938 61.2389 42.752 61.4928 42.4629C61.7467 42.1738 62.0573 41.9492 62.4245 41.7891C62.7917 41.625 63.2096 41.543 63.6784 41.543C64.1549 41.543 64.5768 41.625 64.944 41.7891C65.3151 41.9492 65.6276 42.1738 65.8815 42.4629C66.1354 42.752 66.3288 43.0938 66.4616 43.4883C66.5944 43.8789 66.6608 44.3066 66.6608 44.7715V44.8945C66.6608 45.3555 66.5944 45.7832 66.4616 46.1777C66.3288 46.5684 66.1354 46.9102 65.8815 47.2031C65.6276 47.4922 65.3171 47.7168 64.9499 47.877C64.5827 48.0371 64.1628 48.1172 63.6901 48.1172C63.2214 48.1172 62.8014 48.0371 62.4303 47.877C62.0592 47.7168 61.7467 47.4922 61.4928 47.2031C61.2389 46.9102 61.0456 46.5684 60.9128 46.1777C60.7799 45.7832 60.7135 45.3555 60.7135 44.8945ZM62.2604 44.7715V44.8945C62.2604 45.1719 62.2878 45.4316 62.3424 45.6738C62.3971 45.916 62.4811 46.1289 62.5944 46.3125C62.7077 46.4961 62.8542 46.6406 63.0339 46.7461C63.2174 46.8477 63.4362 46.8984 63.6901 46.8984C63.9401 46.8984 64.1549 46.8477 64.3346 46.7461C64.5143 46.6406 64.6608 46.4961 64.7741 46.3125C64.8913 46.1289 64.9772 45.916 65.0319 45.6738C65.0866 45.4316 65.1139 45.1719 65.1139 44.8945V44.7715C65.1139 44.498 65.0866 44.2422 65.0319 44.0039C64.9772 43.7617 64.8913 43.5488 64.7741 43.3652C64.6608 43.1777 64.5124 43.0312 64.3288 42.9258C64.1491 42.8164 63.9323 42.7617 63.6784 42.7617C63.4284 42.7617 63.2135 42.8164 63.0339 42.9258C62.8542 43.0312 62.7077 43.1777 62.5944 43.3652C62.4811 43.5488 62.3971 43.7617 62.3424 44.0039C62.2878 44.2422 62.2604 44.498 62.2604 44.7715ZM69.8327 42.9551V48H68.2858V41.6602H69.7507L69.8327 42.9551ZM71.7604 41.6191L71.737 43.0605C71.651 43.0449 71.5534 43.0332 71.444 43.0254C71.3385 43.0176 71.2389 43.0137 71.1452 43.0137C70.9069 43.0137 70.6979 43.0469 70.5182 43.1133C70.3385 43.1758 70.1882 43.2676 70.0671 43.3887C69.9499 43.5098 69.86 43.6582 69.7975 43.834C69.735 44.0059 69.6999 44.2012 69.6921 44.4199L69.3581 44.3789C69.3581 43.9766 69.3991 43.6035 69.4811 43.2598C69.5632 42.916 69.6823 42.6152 69.8385 42.3574C69.9948 42.0996 70.1901 41.9004 70.4245 41.7598C70.6628 41.6152 70.9362 41.543 71.2448 41.543C71.3307 41.543 71.4225 41.5508 71.5202 41.5664C71.6217 41.5781 71.7018 41.5957 71.7604 41.6191ZM75.8405 48.1172C75.36 48.1172 74.9284 48.0391 74.5456 47.8828C74.1628 47.7266 73.8366 47.5098 73.5671 47.2324C73.3014 46.9512 73.0964 46.625 72.9518 46.2539C72.8112 45.8789 72.7409 45.4766 72.7409 45.0469V44.8125C72.7409 44.3242 72.8112 43.8809 72.9518 43.4824C73.0925 43.0801 73.2917 42.7344 73.5495 42.4453C73.8073 42.1562 74.1159 41.9336 74.4753 41.7773C74.8346 41.6211 75.2311 41.543 75.6647 41.543C76.1139 41.543 76.5104 41.6191 76.8542 41.7715C77.1979 41.9199 77.485 42.1309 77.7155 42.4043C77.946 42.6777 78.1198 43.0059 78.237 43.3887C78.3542 43.7676 78.4128 44.1875 78.4128 44.6484V45.2988H73.444V44.2324H76.8893V44.1152C76.8815 43.8691 76.8346 43.6445 76.7487 43.4414C76.6628 43.2344 76.53 43.0703 76.3503 42.9492C76.1706 42.8242 75.9382 42.7617 75.653 42.7617C75.4225 42.7617 75.2214 42.8125 75.0495 42.9141C74.8815 43.0117 74.7409 43.1523 74.6276 43.3359C74.5182 43.5156 74.4362 43.7305 74.3815 43.9805C74.3268 44.2305 74.2995 44.5078 74.2995 44.8125V45.0469C74.2995 45.3125 74.3346 45.5586 74.405 45.7852C74.4792 46.0117 74.5866 46.209 74.7272 46.377C74.8717 46.541 75.0436 46.6699 75.2428 46.7637C75.446 46.8535 75.6764 46.8984 75.9342 46.8984C76.2585 46.8984 76.5514 46.8359 76.8132 46.7109C77.0788 46.582 77.3092 46.3926 77.5046 46.1426L78.2839 46.9512C78.151 47.1465 77.9714 47.334 77.7448 47.5137C77.5221 47.6934 77.2526 47.8398 76.9362 47.9531C76.6198 48.0625 76.2546 48.1172 75.8405 48.1172Z" fill="#02369C"/>
<defs>
<clipPath id="clip0_2302_679">
<rect x="25.1667" width="64" height="32" rx="16" fill="white"/>
</clipPath>
</defs>
</svg>
