<svg width="98" height="60" viewBox="0 0 98 60" fill="none" xmlns="http://www.w3.org/2000/svg">
<path d="M63.6665 28C62.5665 28 61.6248 27.6083 60.8415 26.825C60.0582 26.0417 59.6665 25.1 59.6665 24C59.6665 22.9 60.0582 21.9583 60.8415 21.175C61.6248 20.3917 62.5665 20 63.6665 20C64.7665 20 65.7082 20.3917 66.4915 21.175C67.2748 21.9583 67.6665 22.9 67.6665 24C67.6665 25.1 67.2748 26.0417 66.4915 26.825C65.7082 27.6083 64.7665 28 63.6665 28ZM55.6665 36V33.2C55.6665 32.6333 55.8123 32.1125 56.104 31.6375C56.3957 31.1625 56.7832 30.8 57.2665 30.55C58.2998 30.0333 59.3498 29.6458 60.4165 29.3875C61.4832 29.1292 62.5665 29 63.6665 29C64.7665 29 65.8498 29.1292 66.9165 29.3875C67.9832 29.6458 69.0332 30.0333 70.0665 30.55C70.5498 30.8 70.9373 31.1625 71.229 31.6375C71.5207 32.1125 71.6665 32.6333 71.6665 33.2V36H55.6665ZM57.6665 34H69.6665V33.2C69.6665 33.0167 69.6207 32.85 69.529 32.7C69.4373 32.55 69.3165 32.4333 69.1665 32.35C68.2665 31.9 67.3582 31.5625 66.4415 31.3375C65.5248 31.1125 64.5998 31 63.6665 31C62.7332 31 61.8082 31.1125 60.8915 31.3375C59.9748 31.5625 59.0665 31.9 58.1665 32.35C58.0165 32.4333 57.8957 32.55 57.804 32.7C57.7123 32.85 57.6665 33.0167 57.6665 33.2V34ZM63.6665 26C64.2165 26 64.6873 25.8042 65.079 25.4125C65.4707 25.0208 65.6665 24.55 65.6665 24C65.6665 23.45 65.4707 22.9792 65.079 22.5875C64.6873 22.1958 64.2165 22 63.6665 22C63.1165 22 62.6457 22.1958 62.254 22.5875C61.8623 22.9792 61.6665 23.45 61.6665 24C61.6665 24.55 61.8623 25.0208 62.254 25.4125C62.6457 25.8042 63.1165 26 63.6665 26Z" fill="#878787"/>
<path d="M42.8202 56.8184H40.5995V55.6523H42.8202C43.2069 55.6523 43.5194 55.5898 43.7577 55.4648C43.996 55.3398 44.1698 55.168 44.2792 54.9492C44.3925 54.7266 44.4491 54.4727 44.4491 54.1875C44.4491 53.918 44.3925 53.666 44.2792 53.4316C44.1698 53.1934 43.996 53.002 43.7577 52.8574C43.5194 52.7129 43.2069 52.6406 42.8202 52.6406H41.0507V60H39.58V51.4688H42.8202C43.4804 51.4688 44.0409 51.5859 44.5019 51.8203C44.9667 52.0508 45.3202 52.3711 45.5624 52.7812C45.8046 53.1875 45.9257 53.6523 45.9257 54.1758C45.9257 54.7266 45.8046 55.1992 45.5624 55.5938C45.3202 55.9883 44.9667 56.291 44.5019 56.502C44.0409 56.7129 43.4804 56.8184 42.8202 56.8184ZM49.0214 54.8672V60H47.6093V53.6602H48.9569L49.0214 54.8672ZM50.9609 53.6191L50.9491 54.9316C50.8632 54.916 50.7694 54.9043 50.6679 54.8965C50.5702 54.8887 50.4726 54.8848 50.3749 54.8848C50.1327 54.8848 49.9198 54.9199 49.7362 54.9902C49.5527 55.0566 49.3984 55.1543 49.2734 55.2832C49.1523 55.4082 49.0585 55.5605 48.9921 55.7402C48.9257 55.9199 48.8866 56.1211 48.8749 56.3438L48.5527 56.3672C48.5527 55.9688 48.5917 55.5996 48.6698 55.2598C48.748 54.9199 48.8652 54.6211 49.0214 54.3633C49.1816 54.1055 49.3808 53.9043 49.6191 53.7598C49.8612 53.6152 50.1405 53.543 50.4569 53.543C50.5429 53.543 50.6347 53.5508 50.7323 53.5664C50.8339 53.582 50.9101 53.5996 50.9609 53.6191ZM51.9237 56.9004V56.7656C51.9237 56.3086 51.9902 55.8848 52.123 55.4941C52.2558 55.0996 52.4472 54.7578 52.6972 54.4688C52.9511 54.1758 53.2597 53.9492 53.623 53.7891C53.9902 53.625 54.4042 53.543 54.8652 53.543C55.33 53.543 55.7441 53.625 56.1073 53.7891C56.4745 53.9492 56.7851 54.1758 57.039 54.4688C57.2929 54.7578 57.4862 55.0996 57.6191 55.4941C57.7519 55.8848 57.8183 56.3086 57.8183 56.7656V56.9004C57.8183 57.3574 57.7519 57.7812 57.6191 58.1719C57.4862 58.5625 57.2929 58.9043 57.039 59.1973C56.7851 59.4863 56.4765 59.7129 56.1132 59.877C55.7499 60.0371 55.3378 60.1172 54.8769 60.1172C54.412 60.1172 53.996 60.0371 53.6288 59.877C53.2655 59.7129 52.9569 59.4863 52.703 59.1973C52.4491 58.9043 52.2558 58.5625 52.123 58.1719C51.9902 57.7812 51.9237 57.3574 51.9237 56.9004ZM53.3359 56.7656V56.9004C53.3359 57.1855 53.3652 57.4551 53.4237 57.709C53.4823 57.9629 53.5741 58.1855 53.6991 58.377C53.8241 58.5684 53.9843 58.7188 54.1796 58.8281C54.3749 58.9375 54.6073 58.9922 54.8769 58.9922C55.1386 58.9922 55.3652 58.9375 55.5566 58.8281C55.7519 58.7188 55.912 58.5684 56.037 58.377C56.162 58.1855 56.2538 57.9629 56.3124 57.709C56.3749 57.4551 56.4062 57.1855 56.4062 56.9004V56.7656C56.4062 56.4844 56.3749 56.2188 56.3124 55.9688C56.2538 55.7148 56.1601 55.4902 56.0312 55.2949C55.9062 55.0996 55.746 54.9473 55.5507 54.8379C55.3593 54.7246 55.1308 54.668 54.8652 54.668C54.5995 54.668 54.3691 54.7246 54.1737 54.8379C53.9823 54.9473 53.8241 55.0996 53.6991 55.2949C53.5741 55.4902 53.4823 55.7148 53.4237 55.9688C53.3652 56.2188 53.3359 56.4844 53.3359 56.7656ZM61.3183 60H59.9003V53.25C59.9003 52.7383 60.0019 52.3066 60.205 51.9551C60.412 51.6035 60.7069 51.3359 61.0898 51.1523C61.4765 50.9688 61.9355 50.877 62.4667 50.877C62.7792 50.877 63.08 50.9102 63.3691 50.9766C63.662 51.043 63.9648 51.127 64.2773 51.2285L64.0605 52.377C63.8612 52.3105 63.6405 52.248 63.3984 52.1895C63.1562 52.127 62.8769 52.0957 62.5605 52.0957C62.1347 52.0957 61.8202 52.1934 61.6171 52.3887C61.4179 52.5801 61.3183 52.8672 61.3183 53.25V60ZM62.5898 53.6602V54.6914H58.9277V53.6602H62.5898ZM64.9452 53.6602V60H63.5331V53.6602H64.9452ZM68.5331 51V60H67.1152V51H68.5331ZM73.3749 60.1172C72.9062 60.1172 72.4823 60.041 72.1034 59.8887C71.7284 59.7324 71.4081 59.5156 71.1425 59.2383C70.8808 58.9609 70.6796 58.6348 70.539 58.2598C70.3984 57.8848 70.328 57.4805 70.328 57.0469V56.8125C70.328 56.3164 70.4003 55.8672 70.5448 55.4648C70.6894 55.0625 70.8905 54.7188 71.1484 54.4336C71.4062 54.1445 71.7109 53.9238 72.0624 53.7715C72.414 53.6191 72.7948 53.543 73.205 53.543C73.6581 53.543 74.0546 53.6191 74.3944 53.7715C74.7343 53.9238 75.0155 54.1387 75.2382 54.416C75.4648 54.6895 75.6327 55.0156 75.7421 55.3945C75.8554 55.7734 75.912 56.1914 75.912 56.6484V57.252H71.0136V56.2383H74.5175V56.127C74.5097 55.873 74.4589 55.6348 74.3652 55.4121C74.2753 55.1895 74.1366 55.0098 73.9491 54.873C73.7616 54.7363 73.5116 54.668 73.1991 54.668C72.9648 54.668 72.7558 54.7188 72.5722 54.8203C72.3925 54.918 72.2421 55.0605 72.121 55.248C71.9999 55.4355 71.9062 55.6621 71.8398 55.9277C71.7773 56.1895 71.746 56.4844 71.746 56.8125V57.0469C71.746 57.3242 71.7831 57.582 71.8573 57.8203C71.9355 58.0547 72.0487 58.2598 72.1972 58.4355C72.3456 58.6113 72.5253 58.75 72.7362 58.8516C72.9472 58.9492 73.1874 58.998 73.4569 58.998C73.7968 58.998 74.0995 58.9297 74.3652 58.793C74.6308 58.6562 74.8612 58.4629 75.0566 58.2129L75.8007 58.9336C75.664 59.1328 75.4862 59.3242 75.2675 59.5078C75.0487 59.6875 74.7812 59.834 74.4648 59.9473C74.1523 60.0605 73.789 60.1172 73.3749 60.1172Z" fill="#878787"/>
</svg>
