<svg width="17" height="16" viewBox="0 0 17 16" fill="none" xmlns="http://www.w3.org/2000/svg">
<path d="M8.6665 8C7.5665 8 6.62484 7.60833 5.8415 6.825C5.05817 6.04167 4.6665 5.1 4.6665 4C4.6665 2.9 5.05817 1.95833 5.8415 1.175C6.62484 0.391667 7.5665 0 8.6665 0C9.7665 0 10.7082 0.391667 11.4915 1.175C12.2748 1.95833 12.6665 2.9 12.6665 4C12.6665 5.1 12.2748 6.04167 11.4915 6.825C10.7082 7.60833 9.7665 8 8.6665 8ZM0.666504 16V13.2C0.666504 12.6333 0.812337 12.1125 1.104 11.6375C1.39567 11.1625 1.78317 10.8 2.2665 10.55C3.29984 10.0333 4.34984 9.64583 5.4165 9.3875C6.48317 9.12917 7.5665 9 8.6665 9C9.7665 9 10.8498 9.12917 11.9165 9.3875C12.9832 9.64583 14.0332 10.0333 15.0665 10.55C15.5498 10.8 15.9373 11.1625 16.229 11.6375C16.5207 12.1125 16.6665 12.6333 16.6665 13.2V16H0.666504ZM2.6665 14H14.6665V13.2C14.6665 13.0167 14.6207 12.85 14.529 12.7C14.4373 12.55 14.3165 12.4333 14.1665 12.35C13.2665 11.9 12.3582 11.5625 11.4415 11.3375C10.5248 11.1125 9.59984 11 8.6665 11C7.73317 11 6.80817 11.1125 5.8915 11.3375C4.97484 11.5625 4.0665 11.9 3.1665 12.35C3.0165 12.4333 2.89567 12.55 2.804 12.7C2.71234 12.85 2.6665 13.0167 2.6665 13.2V14ZM8.6665 6C9.2165 6 9.68734 5.80417 10.079 5.4125C10.4707 5.02083 10.6665 4.55 10.6665 4C10.6665 3.45 10.4707 2.97917 10.079 2.5875C9.68734 2.19583 9.2165 2 8.6665 2C8.1165 2 7.64567 2.19583 7.254 2.5875C6.86234 2.97917 6.6665 3.45 6.6665 4C6.6665 4.55 6.86234 5.02083 7.254 5.4125C7.64567 5.80417 8.1165 6 8.6665 6Z" fill="#878787"/>
</svg>
