<svg width="64" height="32" viewBox="0 0 64 32" fill="none" xmlns="http://www.w3.org/2000/svg">
<path d="M42.275 18.475L40.025 16.225C39.725 15.925 39.275 15.925 38.975 16.225L32 23.2V26.5H35.3L42.275 19.525C42.575 19.225 42.575 18.775 42.275 18.475ZM34.7 25H33.5V23.8L37.25 20.05L38.45 21.25L34.7 25ZM39.5 20.2L38.3 19L39.5 17.8L40.7 19L39.5 20.2ZM27.5 21.25H29V22.75H27.5V21.25ZM30.5 17.5H33.5V19H30.5V17.5ZM27.5 17.5H29V19H27.5V17.5ZM30.5 13.75H36.5V15.25H30.5V13.75ZM27.5 13.75H29V15.25H27.5V13.75Z" fill="#878787"/>
<path d="M25.25 25V9.25H27.5V11.5H36.5V9.25H38.75V13.75H40.25V9.25C40.25 8.425 39.575 7.75 38.75 7.75H36.5V7C36.5 6.175 35.825 5.5 35 5.5H29C28.175 5.5 27.5 6.175 27.5 7V7.75H25.25C24.425 7.75 23.75 8.425 23.75 9.25V25C23.75 25.825 24.425 26.5 25.25 26.5H29V25H25.25ZM29 7H35V10H29V7Z" fill="#878787"/>
</svg>
