<svg width="25" height="24" viewBox="0 0 25 24" fill="none" xmlns="http://www.w3.org/2000/svg">
<path d="M22.775 14.475L20.525 12.225C20.225 11.925 19.775 11.925 19.475 12.225L12.5 19.2V22.5H15.8L22.775 15.525C23.075 15.225 23.075 14.775 22.775 14.475ZM15.2 21H14V19.8L17.75 16.05L18.95 17.25L15.2 21ZM20 16.2L18.8 15L20 13.8L21.2 15L20 16.2ZM8 17.25H9.5V18.75H8V17.25ZM11 13.5H14V15H11V13.5ZM8 13.5H9.5V15H8V13.5ZM11 9.75H17V11.25H11V9.75ZM8 9.75H9.5V11.25H8V9.75Z" fill="#878787"/>
<path d="M5.75 21V5.25H8V7.5H17V5.25H19.25V9.75H20.75V5.25C20.75 4.425 20.075 3.75 19.25 3.75H17V3C17 2.175 16.325 1.5 15.5 1.5H9.5C8.675 1.5 8 2.175 8 3V3.75H5.75C4.925 3.75 4.25 4.425 4.25 5.25V21C4.25 21.825 4.925 22.5 5.75 22.5H9.5V21H5.75ZM9.5 3H15.5V6H9.5V3Z" fill="#878787"/>
</svg>
