<svg width="45" height="86" viewBox="0 0 45 86" fill="none" xmlns="http://www.w3.org/2000/svg">
<path opacity="0.26809" d="M39.2399 79.4669C39.251 80.0077 38.8437 80.5438 38.0415 81.0444C37.2392 81.5449 36.0578 82 34.5652 82.3834C33.0725 82.7669 31.298 83.0712 29.3437 83.2788C27.3894 83.4865 25.2938 83.5934 23.1773 83.5934C21.0608 83.5934 18.9652 83.4865 17.0109 83.2788C15.0566 83.0712 13.2821 82.7669 11.7894 82.3834C10.2968 82 9.1154 81.5449 8.31315 81.0444C7.5109 80.5438 7.10362 80.0077 7.11472 79.4669C7.10362 78.926 7.5109 78.3899 8.31315 77.8893C9.1154 77.3888 10.2968 76.9337 11.7894 76.5503C13.2821 76.1668 15.0566 75.8625 17.0109 75.6549C18.9652 75.4472 21.0608 75.3403 23.1773 75.3403C25.2938 75.3403 27.3894 75.4472 29.3437 75.6549C31.298 75.8625 33.0725 76.1668 34.5652 76.5503C36.0578 76.9337 37.2392 77.3888 38.0415 77.8893C38.8437 78.3899 39.251 78.926 39.2399 79.4669Z" fill="url(#paint0_radial_39_2942)"/>
<path d="M21.7076 2.2702C19.4456 2.28892 17.1843 2.62018 14.9229 3.41316C9.39812 6.72256 7.69653 10.881 7.69653 15.4918C7.69653 24.6064 20.8788 35.9518 19.9819 42.0738C18.7473 50.504 7.80708 57.0746 7.80708 66.8178C7.80708 71.4288 9.50851 75.587 15.0335 78.8964C20.202 80.7089 25.3735 80.0979 30.5421 78.8964C36.0649 74.8202 37.8371 70.4402 37.6511 65.8934C37.6511 60.6436 25.3494 47.5144 25.3494 40.9734C25.3494 33.7408 37.5407 24.1538 37.5407 16.4154C38.0274 11.892 35.9545 7.48856 30.4317 3.41236C27.5243 2.73648 24.6158 2.24532 21.7076 2.2694V2.2702Z" fill="#F7FAFA"/>
<path d="M9.00189 64.3361L7.9459 64.9217C7.94079 64.9568 7.93694 64.9922 7.93211 65.0275C7.91563 65.1474 7.89705 65.2664 7.88379 65.3873C7.88072 65.4153 7.8798 65.444 7.87688 65.472C7.86156 65.6197 7.85275 65.7672 7.84238 65.9165C7.83269 66.0563 7.81998 66.1987 7.81477 66.3398C7.81438 66.3492 7.81516 66.3586 7.81477 66.368C7.80953 66.5185 7.80786 66.6676 7.80786 66.8195C7.80786 71.4305 9.50929 75.5887 15.0343 78.8981C20.2028 80.7107 25.3743 80.0997 30.5428 78.8981C30.7154 78.7708 30.8814 78.6451 31.0467 78.5172C33.5264 76.5976 35.1961 74.6136 36.2369 72.5766C36.3063 72.4408 36.3732 72.3036 36.4371 72.1674C37.3951 70.1236 37.7391 68.0266 37.6518 65.8952C37.6518 65.7226 37.6361 65.541 37.6104 65.3519L30.4601 64.9004L9.00295 64.3359L9.00189 64.3361Z" fill="#B9A06D"/>
<path d="M7.93162 65.0142C7.93103 65.0188 7.9322 65.0237 7.93162 65.0283C7.91514 65.1482 7.89657 65.2672 7.8833 65.3881C7.88023 65.4161 7.87931 65.4448 7.8764 65.4728C7.86108 65.6205 7.85226 65.768 7.84189 65.9173C7.8322 66.0571 7.81949 66.1995 7.81428 66.3406C7.81389 66.35 7.81467 66.3594 7.81428 66.3688C7.80904 66.5193 7.80737 66.6684 7.80737 66.8203C7.80737 71.4313 9.50881 75.5895 15.0338 78.8989C20.2023 80.7115 25.3738 80.1005 30.5424 78.8989C30.7149 78.7716 30.8809 78.6459 31.0462 78.518C31.8934 77.8621 32.6447 77.1988 33.3101 76.5284C23.4995 79.8178 11.9116 74.8621 7.93204 65.0142L7.93162 65.0142Z" fill="#B2965E"/>
<path d="M22.5624 61.5781C18.6001 61.5781 15.0012 61.979 12.32 62.6364L9.01409 62.5941L8.08234 64.1251C7.94176 64.8074 7.85313 65.5064 7.82007 66.2205C9.11198 68.0463 15.2189 69.4307 22.5627 69.4307C30.8462 69.4307 37.5606 67.6707 37.5606 65.5009C37.5606 65.3373 37.5173 65.1794 37.4432 65.0211L37.5537 65.007C37.5344 64.9119 37.5092 64.8163 37.4846 64.7178L36.2285 62.9398L33.8267 62.9116C31.078 62.0932 27.051 61.5782 22.5628 61.5782L22.5624 61.5781Z" fill="#C0AC7F"/>
<path d="M22.7151 57.0981C22.3343 57.1013 21.9591 57.2385 21.6798 57.4791C19.8568 59.2045 18.0755 60.3049 15.5508 60.9645C12.1233 61.86 9.05473 61.8275 8.89038 62.8836C8.89038 63.676 15.0354 64.3158 22.6183 64.3158C30.2012 64.3158 36.3531 63.676 36.3531 62.8836C35.2291 61.4867 31.703 61.6987 28.7195 60.633C26.6656 59.8993 24.836 58.4496 23.8261 57.5286C23.5363 57.2556 23.1274 57.0952 22.7149 57.0982L22.7151 57.0981Z" fill="#D4C198"/>
<path d="M22.715 57.0981C22.6578 57.0985 22.5992 57.1058 22.5425 57.1123C24.2196 61.2833 26.7832 63.3183 29.5549 64.1183C33.6154 63.8698 36.3532 63.4112 36.3532 62.8836C35.2292 61.4868 31.7031 61.6987 28.7196 60.633C26.6657 59.8993 24.8361 58.4496 23.8262 57.5286C23.5364 57.2556 23.1275 57.0952 22.715 57.0981Z" fill="#D9C5A0"/>
<path d="M13.5017 24.9043L11.6106 25.9485C15.3863 32.1057 20.4682 38.0765 19.9964 41.9781L20.3622 42.6484L24.1446 41.9217L25.5112 39.4593C26.1567 36.3299 28.6211 32.8411 31.1501 29.2997L32.8272 26.2801L32.0335 24.9043H13.5019L13.5017 24.9043Z" fill="#C6B38A"/>
<path d="M26.1861 24.9043C27.7837 32.2297 24.081 39.0473 21.8103 42.3733L24.1431 41.9218L25.5097 39.4594C26.1552 36.33 28.6195 32.8412 31.1485 29.2998L32.8257 26.2802L32.032 24.9044L26.1861 24.9043Z" fill="#CEBE99"/>
<path d="M13.5017 24.9043L11.6106 25.9485C14.8745 31.2711 19.115 36.4501 19.8998 40.2779L22.2533 41.1175C22.2533 41.1175 22.3031 33.9171 13.9297 24.9045L13.5017 24.9043Z" fill="#BEA877"/>
<path d="M32.5879 25.188C32.5879 25.5836 31.5324 25.963 29.6537 26.2427C27.775 26.5225 25.2269 26.6797 22.5699 26.6797C19.913 26.6797 17.3649 26.5225 15.4862 26.2427C13.6075 25.963 12.552 25.5836 12.552 25.188C12.552 24.7923 13.6075 24.4129 15.4862 24.1332C17.3649 23.8534 19.913 23.6963 22.5699 23.6963C25.2269 23.6963 27.775 23.8534 29.6537 24.1332C31.5324 24.4129 32.5879 24.7923 32.5879 25.188Z" fill="#D5C7A9"/>
<path d="M22.5703 23.6982C19.3964 23.6982 16.572 23.9197 14.7366 24.2627C30.2669 23.9149 30.6711 25.3988 29.7482 26.2311C31.502 25.9624 32.5849 25.5912 32.5849 25.1869C32.5849 24.3631 28.1027 23.6982 22.5703 23.6982Z" fill="#E1D6C0"/>
<path d="M21.9521 41.1564C23.0512 47.7956 22.2407 52.8498 22.6215 59.0592C22.8552 52.93 22.3408 46.2274 23.3505 40.6934L21.9521 41.1564Z" fill="#C6B38A"/>
<path d="M13.3493 61.4444C10.9076 61.8969 9.01839 62.0628 8.89062 62.8836C8.89062 63.6761 15.0357 64.3159 22.6186 64.3159C23.7625 64.3159 24.869 64.301 25.9315 64.2735C22.4264 63.9749 15.3501 63.1712 13.3493 61.4444Z" fill="#CBB381"/>
<path d="M21.7076 2.2702C19.4456 2.28892 17.1843 2.62018 14.9229 3.41316C9.39812 6.72256 7.69653 10.881 7.69653 15.4918C7.69653 24.6064 20.8788 35.9518 19.9819 42.0738C18.7473 50.504 7.80708 57.0746 7.80708 66.8178C7.80708 71.4288 9.50851 75.587 15.0335 78.8964C20.202 80.7089 25.3735 80.0979 30.5421 78.8964C36.0649 74.8202 37.8371 70.4402 37.6511 65.8934C37.6511 60.6436 25.3494 47.5144 25.3494 40.9734C25.3494 33.7408 37.5407 24.1538 37.5407 16.4154C38.0274 11.892 35.9545 7.48856 30.4317 3.41236C27.5243 2.73648 24.6158 2.24532 21.7076 2.2694V2.2702Z" fill="#F7FAFA" fill-opacity="0.2266" stroke="black" stroke-opacity="0.073892" stroke-width="1.1288"/>
<path d="M7.71053 15.9864C8.16634 25.0138 20.8629 36.0623 19.9822 42.0763C18.7805 50.2822 8.38748 56.727 7.83476 66.0504C9.22466 62.0136 12.1655 58.2478 14.854 54.4444C17.1384 51.2126 19.2865 48.0431 20.6723 45.4487C21.6503 43.9033 22.239 42.6221 22.239 41.3849C22.239 41.3295 22.2353 41.2735 22.2321 41.2156C22.2354 41.1569 22.239 41.0954 22.239 41.0392C22.239 39.8077 21.6559 38.5392 20.6861 37.0036C19.3008 34.4048 17.146 31.2224 14.8539 27.9798C12.0796 24.0548 9.04069 20.1696 7.71045 15.9858L7.71053 15.9864Z" fill="url(#paint1_linear_39_2942)"/>
<path d="M37.5886 15.8522C36.2816 20.0876 33.208 24.0132 30.4037 27.9802C28.1118 31.2226 25.9569 34.405 24.5715 37.004C23.6017 38.5396 23.0186 39.808 23.0186 41.0396C23.0186 41.0957 23.0222 41.1573 23.0255 41.216C23.0223 41.2739 23.0186 41.3299 23.0186 41.3853C23.0186 42.6227 23.6072 43.9037 24.5853 45.4491C25.9712 48.0433 28.1192 51.2127 30.4036 54.4447C33.2607 58.4867 36.4015 62.4855 37.6644 66.8127C37.6702 66.5088 37.6631 66.201 37.6506 65.8955C37.6506 60.6457 25.3514 47.5175 25.3514 40.9755C25.3514 33.7429 37.5401 24.1549 37.5401 16.4155C37.5604 16.227 37.5771 16.0391 37.5884 15.8511L37.5886 15.8522Z" fill="url(#paint2_linear_39_2942)"/>
<path d="M7.84155 67.8423C8.08706 72.0453 9.91997 75.8351 15.0333 78.8979C16.5817 79.4409 18.1295 79.7636 19.6783 79.9209C15.1916 77.2845 10.4396 73.6497 7.84155 67.8423ZM37.4652 68.9076C34.8392 73.9486 30.5478 77.2442 26.4428 79.6882C27.809 79.487 29.1766 79.2156 30.5425 78.898C34.8343 75.7304 36.8624 72.378 37.4652 68.9076Z" fill="#F7F8F8" fill-opacity="0.37931"/>
<path d="M21.0657 2.28418C19.0176 2.35583 16.9705 2.695 14.923 3.41302C9.71235 6.53422 7.90629 10.4096 7.71729 14.7086C9.70472 10.2476 13.2699 5.98718 21.0657 2.28418ZM24.1094 2.36179C32.2012 6.24079 35.6889 10.7218 37.6028 15.407C37.6957 11.238 35.5431 7.18559 30.4317 3.41299C28.3249 2.92321 26.2172 2.53175 24.1096 2.36175L24.1094 2.36179Z" fill="#EEF5F7"/>
<path d="M21.7074 2.6123C19.4455 2.62558 17.1841 2.8605 14.9228 3.42282C14.8891 3.43714 14.8596 3.45349 14.8262 3.46785C15.0128 5.46649 18.5056 7.06025 22.791 7.06025C26.9914 7.06025 30.4314 5.53079 30.7421 3.58805C30.6394 3.53285 30.5366 3.47797 30.4315 3.42294C27.5241 2.94364 24.6156 2.59522 21.7074 2.6123Z" fill="#E8F1F5" fill-opacity="0.80788"/>
<path d="M21.8424 2.69438C19.866 2.70546 17.8897 2.90196 15.9138 3.3723C15.8843 3.38426 15.8585 3.39796 15.8293 3.40997C15.9925 5.08163 19.0445 6.41457 22.7893 6.41457C26.4599 6.41457 29.4657 5.13535 29.7373 3.51037C29.6476 3.4642 29.5577 3.41829 29.4659 3.37227C26.9253 2.97139 24.3836 2.6801 21.8424 2.69438Z" fill="#FBFDFE" fill-opacity="0.80788"/>
<path d="M29.986 64.3593L32.1808 63.2446C31.6769 61.6995 31.1731 60.1544 30.6693 58.6095C29.7813 58.5766 28.8933 58.5437 28.0054 58.5107C28.6656 60.4603 29.3258 62.4098 29.986 64.3593ZM32.623 63.2666L34.6866 62.3495C34.3691 61.2418 34.0517 60.1342 33.7342 59.0265C32.9244 58.8877 32.1146 58.749 31.3048 58.6102C31.7442 60.1623 32.1836 61.7145 32.623 63.2666ZM32.7334 64.1696C32.8347 65.6583 32.9359 67.147 33.0371 68.6354C33.8262 68.0122 34.6153 67.389 35.4044 66.7658C35.2273 65.5312 35.0501 64.2965 34.873 63.062L32.7334 64.1696ZM30.0969 65.2138L29.6621 69.7714C30.6076 69.4634 31.5531 69.1553 32.4987 68.8472C32.4044 67.2551 32.3101 65.6631 32.2158 64.071C31.5095 64.452 30.8032 64.8328 30.0969 65.2138Z" fill="white" fill-opacity="0.26601"/>
<path d="M34.3555 17.167L32.0986 16.6449L32.8164 12.5318L34.9835 14.0698L34.3555 17.167Z" fill="white" fill-opacity="0.40887"/>
<path d="M31.5485 16.6455L28.8223 16.0106L29.54 10.6063L32.2662 12.5323L31.5485 16.6455Z" fill="white" fill-opacity="0.40887"/>
<path d="M28.1165 21.8134L28.8204 16.494L31.5466 17.129L30.822 21.2491L28.1165 21.8134Z" fill="white" fill-opacity="0.40887"/>
<path d="M31.374 21.249L32.0987 17.1289L34.3556 17.651L33.7206 20.7622L31.374 21.249Z" fill="white" fill-opacity="0.40887"/>
<defs>
<radialGradient id="paint0_radial_39_2942" cx="0" cy="0" r="1" gradientUnits="userSpaceOnUse" gradientTransform="translate(23.1751 79.4657) scale(16.0628 4.10494)">
<stop/>
<stop offset="1" stop-opacity="0"/>
</radialGradient>
<linearGradient id="paint1_linear_39_2942" x1="7.70868" y1="41.0159" x2="22.2363" y2="41.0159" gradientUnits="userSpaceOnUse">
<stop stop-color="#E0ECEC"/>
<stop offset="1" stop-color="#F2F7F7"/>
</linearGradient>
<linearGradient id="paint2_linear_39_2942" x1="28.8156" y1="32.0937" x2="28.7371" y2="45.4339" gradientUnits="userSpaceOnUse">
<stop stop-color="#E0ECEC"/>
<stop offset="1" stop-color="#F2F7F7"/>
</linearGradient>
</defs>
</svg>
